<svg id="Camada_1" data-name="Camada 1" xmlns="http://www.w3.org/2000/svg" viewBox="0 0 1080 1080"><defs><style>.cls-1{fill:#231f20;}.cls-2{fill:#a81127;}</style></defs><title>LOGO -  CORAÇÃO PRETO - TEXTO VERMELHO</title><path class="cls-1" d="M505.31,145.72v599c0,.22,0,.44,0,.66.3,4.95-1.95,12.16-8.46,10.33a8.94,8.94,0,0,1-2.41-1.11c-191.59-122.52-401-352.24-341.31-563a12.15,12.15,0,0,1,.42-1.2C221,32.1,413.08,18.54,503.4,139.93A9.71,9.71,0,0,1,505.31,145.72Zm-334,58.38C125.9,380.25,294.12,596.92,483.37,723.39V149.25C398.34,34.66,222.81,66.66,171.3,204.1Z"/><path class="cls-1" d="M669.73,92.45c56-59.92,144.43-38.8,153.91,49.15,61.22-8.19,100.45,52.6,74.15,100.5C954.7,278.26,950.5,343.52,906,374.83c48.29,64.67,1.54,136.05-66.82,134.94,20.26,67.69-7.23,120.85-73.72,139.69-4.71,39.31-31.18,59.66-80.19,60.35C667.58,781,565.4,763.7,562,700.33V161.43C571.09,103.27,618,76.07,669.73,92.45ZM580.3,497.89V703.1c8.34,49.15,81.91,52,91.4,0v-17c.57-7.47,18.87-7.85,19,0v8.34c59.49,5,76.16-70.27,29.31-93.7-20.33,38.16-47.64,44-77,40.24-17.82-2.73-14-22.47,0-20,78.75,11.06,77.45-84.36,29-95.14C636.78,533.82,609.39,525.17,580.3,497.89Zm145.43,83.78c21.66,9.26,34.95,27,40.52,52.6C871.58,599.62,828.54,460.13,736.07,473c-8.7,19.89-22,34-39.08,43.4C717.3,532.58,726.07,554.75,725.73,581.67ZM580.3,169.14V460.57c26.44,64.76,117.27,63.61,139.68,0,20.89-67.64-37.55-112.09-93.5-93.51-14.56-1.34-14.13-17.88,0-21.46C693.66,334.76,755.81,378.75,742,453.29c36.11.22,63.29,14.78,83.92,39.85,51,21.27,113.43-52.11,61.89-103.85-14.51,4.28-28.54,5-42,1.15-19,27.59-48.63,38.76-78,25.48-8-3.06-6.37-16.28,2.88-17.81,44.84,21.84,97.34-40.82,33.53-79.33-4.77-2.49-4.12-17.72,9.2-16.86,34.68,17.24,41.48,40.83,38.32,70.13,54,15.71,105.77-67.26,36.21-106.73-33.15,30.66-75.35,27.93-103.47,0-22.6-19.59-13-64.43-65-65-33.87,1.26-46.59,20.45-48.66,48.67v16.62c-.58,11.93-14.52,12.36-18.11,0-6.24-44.71,13.34-71.4,53-84.07,37.12-6,59.16,8.17,72.85,31,13,15.24,5.37,49,55.48,55.47,26.13.15,53.88-20.26,52.3-52.3-2.15-40.67-33.34-49.15-49.79-49.8L822,167c-3.63,13.4-7.66,25.82-14.94,30.32-7.62,5.61-15.68.52-15.52-8.91,16.67-26.58,17.75-53.08,0-79-26.3-33-73.72-36.78-104.19-1.86l12.94,10.77c7.18,10.35-7.49,20-15.38,12.36C646.28,97.49,593.81,111.65,580.3,169.14Z"/><path class="cls-2" d="M184.35,855.46A97.6,97.6,0,0,0,176,867.13q-5.28,8.25-7.59,12.75,13.13-2.61,18.16-2.61a10.76,10.76,0,0,1,3.71.49A2.1,2.1,0,0,1,191.7,880c0,2.52-1.42,3.77-4.26,3.77h-1q-1.82-.06-2.67-.06-6,0-20,3.95-8.87,15.24-15.61,36.45c-.61,2.14-1.56,3.22-2.86,3.22a3.33,3.33,0,0,1-2.85-1.89,5,5,0,0,1-.91-2.79q0-1.57,3.34-10.69a195.16,195.16,0,0,1,15.79-32.2Q167.22,869,175,857a2.13,2.13,0,0,1-2.07-2.31q0-3,5.78-4.55a139.16,139.16,0,0,1,15.61-3.47,89.12,89.12,0,0,1,13.12-1.39q7.11,0,7.11,3.58a3.51,3.51,0,0,1-1.64,3,2.57,2.57,0,0,1-1.52.48,16.6,16.6,0,0,1-2.07-.18,25.3,25.3,0,0,0-3.58-.3,78.83,78.83,0,0,0-11.06,1.27A67.2,67.2,0,0,0,184.35,855.46Z"/><path class="cls-2" d="M204,888.21a2.14,2.14,0,0,1,1.71.79,2.26,2.26,0,0,1,.48,1.33c0,.73-.59,1.95-1.76,3.65a111.59,111.59,0,0,0-9,16.1,136,136,0,0,0-5,13.36q-1,3-3,3a2.3,2.3,0,0,1-1.94-1,2.55,2.55,0,0,1-.67-1.7q0-1.81,3.89-12.15a84,84,0,0,1,9.84-18,33.24,33.24,0,0,1,3.28-4.31A3.11,3.11,0,0,1,204,888.21Zm11.55-22.54q2.73,0,2.73,2.79c0,1.7-.89,3.59-2.67,5.65s-3.34,3-4.92,3a2.37,2.37,0,0,1-1.89-.85,2.8,2.8,0,0,1-.72-2c0-1.94,1.07-4,3.21-6.19Q213.68,865.67,215.57,865.67Z"/><path class="cls-2" d="M215.63,903.76c.52-.49,1-1,1.51-1.46q12.71-12.39,17-12.39,2.37,0,2.37,2.61,0,1.82-2.12,4.31-11.61,13.54-11.61,23.88a12.15,12.15,0,0,0,1.83,6.37,4.87,4.87,0,0,1,.85,2.19,1.94,1.94,0,0,1-.73,1.4,2.49,2.49,0,0,1-1.89.85c-1.66,0-3-1-4.19-3.16a14.8,14.8,0,0,1-1.64-7.23q0-8.21,6.2-18.16-8.26,5.28-15.37,18.71c-1.22,2.14-2.51,3.22-3.89,3.22a2.2,2.2,0,0,1-1.7-.73,3,3,0,0,1-.85-2.19q0-3.27,7.47-17.19,4-7.53,6.32-10.93t4-3.35a2.2,2.2,0,0,1,1.52.73,2.72,2.72,0,0,1,.85,2c0,.89-.59,2.16-1.76,3.82A64,64,0,0,0,215.63,903.76Z"/><path class="cls-2" d="M254.14,914.57a46.81,46.81,0,0,1-3.95,5.95q-3.83,4.74-7.6,4.74a5.66,5.66,0,0,1-5.1-3.1,9.29,9.29,0,0,1-1.15-4.73q0-6.75,4.25-14.89A39.42,39.42,0,0,1,252,888.63a14.51,14.51,0,0,1,8.44-3.16,6,6,0,0,1,4.26,1.58,4.29,4.29,0,0,1,1.46,3.16,10.16,10.16,0,0,1-1,3.71,4,4,0,0,1,.91,2.24,10.15,10.15,0,0,1-1.7,4.2,46.58,46.58,0,0,0-3.52,7.89,26.21,26.21,0,0,0-1.88,8.39,5.94,5.94,0,0,0,1.51,4.19,12,12,0,0,0,2.5,1.4,2.58,2.58,0,0,1,1.51,2.55,2.35,2.35,0,0,1-.85,1.88,3.1,3.1,0,0,1-2.12.79,7.07,7.07,0,0,1-5.65-2.92,9,9,0,0,1-2-5.95C253.89,917.77,254,916.43,254.14,914.57Zm7.59-20a6,6,0,0,0-1.58-2,3,3,0,0,0-1.82-.64q-4.62,0-10,8.08-6,8.93-6,15.13a3.86,3.86,0,0,0,.58,2.31,2,2,0,0,0,1.73.79q2.91,0,6.8-6.2a103.38,103.38,0,0,0,5.41-10,52.32,52.32,0,0,1,3.1-5.71A8.68,8.68,0,0,1,261.73,894.58Z"/><path class="cls-2" d="M279.59,903.76c.52-.49,1-1,1.52-1.46q12.69-12.39,17-12.39,2.37,0,2.37,2.61,0,1.82-2.13,4.31-11.61,13.54-11.6,23.88a12.14,12.14,0,0,0,1.82,6.37,4.75,4.75,0,0,1,.85,2.19,1.91,1.91,0,0,1-.73,1.4,2.47,2.47,0,0,1-1.88.85q-2.49,0-4.2-3.16a14.8,14.8,0,0,1-1.64-7.23q0-8.21,6.2-18.16-8.26,5.28-15.37,18.71c-1.21,2.14-2.51,3.22-3.89,3.22a2.21,2.21,0,0,1-1.7-.73,3,3,0,0,1-.85-2.19q0-3.27,7.47-17.19,4-7.53,6.32-10.93t3.95-3.35a2.18,2.18,0,0,1,1.52.73,2.68,2.68,0,0,1,.85,2c0,.89-.59,2.16-1.76,3.82A64,64,0,0,0,279.59,903.76Z"/><path class="cls-2" d="M304.25,925.5a6.49,6.49,0,0,1-1.82-.72,8,8,0,0,1-3.89-7.29q0-9.72,10.14-21.51,7.79-9,13.91-9.05a4.13,4.13,0,0,1,3.77,2.13A5.7,5.7,0,0,1,327,892a14.52,14.52,0,0,1-3.52,8.93c-1.75,2.27-3.28,3.4-4.62,3.4-1.18,0-1.76-.64-1.76-1.94a2.61,2.61,0,0,1,.27-1.31,11.26,11.26,0,0,1,1.67-1.73,14.18,14.18,0,0,0,2.31-3.1,4.93,4.93,0,0,0,.79-2.24c0-.65-.37-1-1.09-1s-2.15.67-3.89,2q-4.14,3.16-8.26,10.08-4.26,7.17-4.26,11.3a3.84,3.84,0,0,0,.79,2.37,3.64,3.64,0,0,0,3.1,1.58q3.82,0,9.05-4.74a54.31,54.31,0,0,0,7.48-8.14c1.05-1.5,2-2.24,2.73-2.24a1.61,1.61,0,0,1,1.21.6,1.93,1.93,0,0,1,.49,1.22q0,2.91-8.14,11.24-6.56,6.79-12.27,7.41l-2.43,4.49a13.85,13.85,0,0,1,4.19,1.4,4.24,4.24,0,0,1,2.19,3.83,6.39,6.39,0,0,1-2.49,5,9.26,9.26,0,0,1-6.2,2,10.71,10.71,0,0,1-6.68-1.94,3.69,3.69,0,0,1-1.7-2.86c0-1.17.46-1.76,1.39-1.76a2.45,2.45,0,0,1,1.28.55,9.74,9.74,0,0,0,5.22,2,5.21,5.21,0,0,0,3-.85,1.75,1.75,0,0,0-.24-3.28,4.41,4.41,0,0,0-1.82-.48,9,9,0,0,1-2.8-.31,1.38,1.38,0,0,1-.79-1.27,8.72,8.72,0,0,1,1.28-3.1Z"/><path class="cls-2" d="M352,914.57a45.79,45.79,0,0,1-3.94,5.95q-3.84,4.74-7.6,4.74a5.65,5.65,0,0,1-5.1-3.1,9.29,9.29,0,0,1-1.15-4.73q0-6.75,4.25-14.89a39.31,39.31,0,0,1,11.42-13.91,14.48,14.48,0,0,1,8.44-3.16,6,6,0,0,1,4.25,1.58,4.26,4.26,0,0,1,1.46,3.16,10.1,10.1,0,0,1-1,3.71,4,4,0,0,1,.91,2.24c0,.85-.57,2.25-1.7,4.2a46.58,46.58,0,0,0-3.52,7.89,26.27,26.27,0,0,0-1.89,8.39,6,6,0,0,0,1.52,4.19,12.06,12.06,0,0,0,2.49,1.4,2.59,2.59,0,0,1,1.52,2.55,2.35,2.35,0,0,1-.85,1.88,3.14,3.14,0,0,1-2.13.79,7,7,0,0,1-5.64-2.92,9,9,0,0,1-1.95-5.95C351.75,917.77,351.83,916.43,352,914.57Zm7.6-20a6,6,0,0,0-1.58-2,3,3,0,0,0-1.82-.64q-4.62,0-10,8.08-6,8.93-6,15.13a3.86,3.86,0,0,0,.58,2.31,2,2,0,0,0,1.73.79q2.91,0,6.8-6.2a103.38,103.38,0,0,0,5.41-10,52.32,52.32,0,0,1,3.1-5.71A8.68,8.68,0,0,1,359.59,894.58Z"/><path class="cls-2" d="M394.09,884.26a9.8,9.8,0,0,1,5.65,1.33,4.67,4.67,0,0,1,1.88,4.07,11,11,0,0,1-2.67,6.93,17.63,17.63,0,0,1-7.65,5.1,14.07,14.07,0,0,1-4.68,1c-1.7,0-2.55-.74-2.55-2.24a2.48,2.48,0,0,1,1.45-2.31,41.89,41.89,0,0,1,4.14-1,9.36,9.36,0,0,0,4.13-2.13,4,4,0,0,0,1.64-3,2.32,2.32,0,0,0-.73-1.88,3.35,3.35,0,0,0-2.19-.61q-3.52,0-7.77,2.86-4.94,3.21-4.93,7.65c0,2.11,1.08,4.74,3.22,7.9q3.59,5.16,3.59,8.75a9.47,9.47,0,0,1-4.74,8.38,12,12,0,0,1-6.62,1.88q-5.83,0-8.87-4.19a11.78,11.78,0,0,1-2.13-7.05,12.81,12.81,0,0,1,2.43-7.95c1.06-1.42,2.15-2.13,3.28-2.13s1.52.4,1.52,1.21a3.33,3.33,0,0,1-.55,1.46,12.85,12.85,0,0,0-1.39,6.14,6.79,6.79,0,0,0,2.12,5,6.07,6.07,0,0,0,4.32,1.82,4.56,4.56,0,0,0,3.7-1.58,5.18,5.18,0,0,0,1.1-3.4c0-1.7-1-3.91-2.92-6.62q-4-5.6-4-10.15,0-6.06,6.62-10.75A23.42,23.42,0,0,1,394.09,884.26Z"/><path class="cls-2" d="M483.45,846.47a7.33,7.33,0,0,1,6.25,2.92,8.91,8.91,0,0,1,1.76,5.59q0,5.88-3.94,13.42a48.86,48.86,0,0,1-8.63,11.66q-3.4,3.35-5.35,3.35a3.53,3.53,0,0,1-3.16-3.35q0-2.12,3.71-4.86a34.94,34.94,0,0,0,8.32-8.5Q487,860,487,855.4a4,4,0,0,0-.82-2.79,3.14,3.14,0,0,0-2.46-.91q-3.35,0-9.48,4.86a97.92,97.92,0,0,0-14.76,14.88A103.54,103.54,0,0,0,444.38,895Q439,907,439,915.54a10.5,10.5,0,0,0,2.37,6.93,8,8,0,0,0,6.38,3.22q6.56,0,16.52-10.21a87,87,0,0,0,7.23-9,42.7,42.7,0,0,0,3.58-5.35c.61-1.17,1.32-1.76,2.13-1.76s1.34.43,1.34,1.28q0,2.73-6.81,12.27a57,57,0,0,1-12.45,13q-7.65,5.66-14.46,5.65-7.11,0-11-6.38a17.35,17.35,0,0,1-2.5-9.29q0-13.12,12.4-33.11,10.56-17,22.29-27.4Q476.21,846.48,483.45,846.47Z"/><path class="cls-2" d="M504,885.41q5,0,5,6.08,0,8.07-7.47,20.47-8.15,13.42-15.74,13.42a5.41,5.41,0,0,1-5.16-3.28,8.44,8.44,0,0,1-.85-4q0-7.77,5.34-16.88a40.88,40.88,0,0,1,11.73-13.13Q500.82,885.41,504,885.41Zm-6.32,23c-1-.81-1.52-1.43-1.52-1.88s.65-1.21,1.94-2.67q5.48-6.14,5.47-9.9a1.86,1.86,0,0,0-.3-1,1.63,1.63,0,0,0-1.52-.91q-1.95,0-5.71,3.77a38.32,38.32,0,0,0-7.41,10q-3,5.89-3,9.78a3.11,3.11,0,0,0,.55,1.83,2.39,2.39,0,0,0,2,1.09c1.95,0,4-1.46,6.26-4.37a19.38,19.38,0,0,0,2.37-3.77A11.27,11.27,0,0,0,497.72,908.37Z"/><path class="cls-2" d="M519.77,904.36a88,88,0,0,1,9-8.38q5.9-4.56,7.9-4.55a2.36,2.36,0,0,1,1.7.72,2.08,2.08,0,0,1,.67,1.46c0,.77-.71,2-2.13,3.77a33.62,33.62,0,0,0-4.56,7q14.22-14.28,19.44-14.28a2.82,2.82,0,0,1,1.89.67,2.31,2.31,0,0,1,.85,1.82c0,1.13-.88,2.59-2.62,4.37q-11.48,11.85-11.48,19.44a7,7,0,0,0,1.1,4.44l1.58,2a2.05,2.05,0,0,1,.48,1.4,2.61,2.61,0,0,1-.79,1.82,2.77,2.77,0,0,1-2.06,1q-2,0-3.71-2.55a12.39,12.39,0,0,1-2.07-7.16,22.81,22.81,0,0,1,3.16-11.18,45.68,45.68,0,0,1,3.65-5.35,58.7,58.7,0,0,0-10.51,10.69,62.13,62.13,0,0,0-6.56,10.33c-.93,1.82-2,2.73-3.28,2.73s-2.07-.77-2.07-2.3,1.14-5.09,3.4-10.27a95,95,0,0,1,4.8-9.36q-10.38,8-15.61,21.75-1.28,3-3.4,3a1.94,1.94,0,0,1-1.58-.73,2.5,2.5,0,0,1-.67-1.76q0-3.59,4-12.94a106.53,106.53,0,0,1,9.48-17.8q3.65-5.54,5.65-5.53c1.21,0,1.82.65,1.82,1.95q0,.84-2.25,4.25A74.91,74.91,0,0,0,519.77,904.36Z"/><path class="cls-2" d="M570.85,892.34c1.66-1.06,2.9-1.79,3.71-2.19a11,11,0,0,1,4.86-1.22,5,5,0,0,1,4,1.55,7,7,0,0,1,1.34,4.65q0,4.26-3,10.21a43.89,43.89,0,0,1-11.18,14.82q-5.52,4.56-10.39,4.56a8.46,8.46,0,0,1-5.28-2.07A371.11,371.11,0,0,0,540.06,957c-.94,2.8-2,4.19-3.29,4.19A2.45,2.45,0,0,1,535,960a3,3,0,0,1-.67-1.88q0-3.29,8-21.33,12.39-27.81,23.51-46.23,2.31-3.88,3.1-5.34,2.13-3.95,4.13-3.95t2.07,2.49a8,8,0,0,1-1.46,3.77Q571.88,890.51,570.85,892.34Zm-13.66,25.21a4.42,4.42,0,0,0,3.34,1.39q5.64,0,12.51-10a37.3,37.3,0,0,0,4.07-7.59,14.41,14.41,0,0,0,1.22-4.68,2.32,2.32,0,0,0-.52-1.64,2.09,2.09,0,0,0-1.61-.55q-2.85,0-7,3.95a42.63,42.63,0,0,0-7.59,10.75Q558.28,915.55,557.19,917.55Z"/><path class="cls-2" d="M609.49,885.41q5,0,5,6.08,0,8.07-7.47,20.47-8.14,13.42-15.74,13.42a5.41,5.41,0,0,1-5.16-3.28,8.44,8.44,0,0,1-.85-4q0-7.77,5.34-16.88a41,41,0,0,1,11.73-13.13Q606.27,885.41,609.49,885.41Zm-6.32,23c-1-.81-1.52-1.43-1.52-1.88s.65-1.21,2-2.67q5.46-6.14,5.46-9.9a1.86,1.86,0,0,0-.3-1,1.63,1.63,0,0,0-1.52-.91q-1.95,0-5.71,3.77a38.32,38.32,0,0,0-7.41,10q-3,5.89-3,9.78a3.11,3.11,0,0,0,.55,1.83,2.39,2.39,0,0,0,2,1.09c1.95,0,4-1.46,6.26-4.37a19.38,19.38,0,0,0,2.37-3.77A11.27,11.27,0,0,0,603.17,908.37Z"/><path class="cls-2" d="M625.83,904.61a117.63,117.63,0,0,1,13.73-12.46,58.19,58.19,0,0,1,6-4.07,6.39,6.39,0,0,1,2-.91c.61,0,1.22.45,1.83,1.34a2.32,2.32,0,0,1,.54,1.34c0,.72-.77,1.72-2.31,3q-6.2,4.92-6.19,7.41c0,.94.52,1.4,1.58,1.4q2.61,0,9-4.31a3.5,3.5,0,0,1,1.82-.73,1.4,1.4,0,0,1,1,.48,1.62,1.62,0,0,1,.55,1.16c0,1.21-1.7,3.08-5.1,5.59q-5.36,4-10.15,4a6.58,6.58,0,0,1-3.58-1,3.24,3.24,0,0,1-1.4-3,6.59,6.59,0,0,1,1.28-3.47q-4.8,3.4-11.3,11.67a84.43,84.43,0,0,0-7.48,12.57q-1.39,2.81-3.46,2.8-2.25,0-2.25-2.13t3.53-11.05q5.22-13.36,10.93-20.72c2.35-3,4.32-4.56,5.89-4.56a2.44,2.44,0,0,1,1.46.49,1.84,1.84,0,0,1,.79,1.52,4.94,4.94,0,0,1-1.21,2.55L630,897.5A32,32,0,0,0,625.83,904.61Z"/><path class="cls-2" d="M674.91,885.47a99.72,99.72,0,0,0-7.29,13.73q-4.8,10.81-4.8,16.16a3.59,3.59,0,0,0,.64,2.31,2.29,2.29,0,0,0,1.91.79q3,0,7.35-5.71a74.25,74.25,0,0,0,4.86-7c.77-1.34,1.6-2,2.49-2a1.84,1.84,0,0,1,1.34.54,1.68,1.68,0,0,1,.48,1.1q0,2.25-5.89,10-7.05,9.36-12.88,9.36a6.19,6.19,0,0,1-5.16-2.86,8.94,8.94,0,0,1-1.28-5.16q0-7.35,4.26-17.13,1-2.43,5.71-11.73a11.26,11.26,0,0,1-2.49.43,4.19,4.19,0,0,1-2.25-.61,2.5,2.5,0,0,1-1.34-2.13,2.74,2.74,0,0,1,1.76-2.43,30,30,0,0,1,4.5-.79,31.16,31.16,0,0,0,4.25-1.15A108,108,0,0,1,678,870.77q2.67-3.64,3.7-4.74a4,4,0,0,1,2.55-1.52,2.23,2.23,0,0,1,1.58.85,2.36,2.36,0,0,1,.73,1.58c0,1.06-1.13,3.14-3.4,6.26a58.19,58.19,0,0,0-3.34,4.92,43,43,0,0,1,9.66-1.82q3.35,0,3.34,2.79a2.23,2.23,0,0,1-1.16,2.07,10,10,0,0,1-3.15.61c-.69,0-3.75.72-9.18,2.3C677.84,884.52,676.37,885,674.91,885.47Z"/><path class="cls-2" d="M700.78,914.57a45.79,45.79,0,0,1-3.94,5.95q-3.84,4.74-7.6,4.74a5.64,5.64,0,0,1-5.1-3.1,9.29,9.29,0,0,1-1.15-4.73q0-6.75,4.25-14.89a39.31,39.31,0,0,1,11.42-13.91,14.48,14.48,0,0,1,8.44-3.16,6,6,0,0,1,4.25,1.58,4.26,4.26,0,0,1,1.46,3.16,10.1,10.1,0,0,1-1,3.71,4,4,0,0,1,.91,2.24c0,.85-.57,2.25-1.7,4.2a46.58,46.58,0,0,0-3.52,7.89,26.27,26.27,0,0,0-1.89,8.39,6,6,0,0,0,1.52,4.19,12.06,12.06,0,0,0,2.49,1.4,2.59,2.59,0,0,1,1.52,2.55,2.35,2.35,0,0,1-.85,1.88,3.14,3.14,0,0,1-2.13.79,7,7,0,0,1-5.64-2.92,9,9,0,0,1-2-5.95C700.54,917.77,700.62,916.43,700.78,914.57Zm7.6-20a6,6,0,0,0-1.58-2A3,3,0,0,0,705,892q-4.62,0-10,8.08-6,8.93-6,15.13a3.86,3.86,0,0,0,.58,2.31,2,2,0,0,0,1.73.79q2.91,0,6.8-6.2a103.38,103.38,0,0,0,5.41-10,52.32,52.32,0,0,1,3.1-5.71A8.68,8.68,0,0,1,708.38,894.58Z"/><path class="cls-2" d="M725.45,904.36a87,87,0,0,1,9-8.38c3.92-3,6.56-4.55,7.89-4.55a2.33,2.33,0,0,1,1.7.72,2,2,0,0,1,.67,1.46c0,.77-.71,2-2.12,3.77a33.62,33.62,0,0,0-4.56,7q14.22-14.28,19.44-14.28a2.78,2.78,0,0,1,1.88.67,2.28,2.28,0,0,1,.85,1.82q0,1.7-2.61,4.37-11.48,11.85-11.48,19.44c0,2.07.36,3.55,1.09,4.44l1.58,2a2,2,0,0,1,.49,1.4,2.65,2.65,0,0,1-.79,1.82,2.77,2.77,0,0,1-2.07,1c-1.33,0-2.57-.85-3.7-2.55a12.39,12.39,0,0,1-2.07-7.16,22.71,22.71,0,0,1,3.16-11.18,45.68,45.68,0,0,1,3.65-5.35,58.38,58.38,0,0,0-10.51,10.69,62.13,62.13,0,0,0-6.56,10.33c-.94,1.82-2,2.73-3.29,2.73s-2.06-.77-2.06-2.3,1.13-5.09,3.4-10.27a95,95,0,0,1,4.8-9.36q-10.38,8-15.61,21.75c-.85,2-2,3-3.4,3a1.94,1.94,0,0,1-1.58-.73A2.5,2.5,0,0,1,712,925q0-3.59,4-12.94a105.8,105.8,0,0,1,9.48-17.8c2.42-3.69,4.31-5.53,5.65-5.53s1.82.65,1.82,1.95q0,.84-2.25,4.25A74.91,74.91,0,0,0,725.45,904.36Z"/><path class="cls-2" d="M763.77,912.93V914a4,4,0,0,0,.67,2.31c1,1.5,2.68,2.25,5,2.25q7.61,0,17.56-11.66c1.17-1.34,2.17-2,3-2a1.55,1.55,0,0,1,1.21.67,1.51,1.51,0,0,1,.37.91q0,2.37-5.84,8a43.36,43.36,0,0,1-9.72,7.23,20.36,20.36,0,0,1-9.59,2.79,8.79,8.79,0,0,1-7.17-3.16,9.17,9.17,0,0,1-1.76-6q0-10.26,9.66-20.11,7.83-8,13.66-8a4.59,4.59,0,0,1,2.86,1,4.09,4.09,0,0,1,1.58,3.34c0,2.14-1,4.78-3,7.89Q776.11,909.22,763.77,912.93Zm1.34-4.74a24.13,24.13,0,0,0,6.68-3.28,27,27,0,0,0,6.75-7.41,5.13,5.13,0,0,0,.91-2.61c0-.81-.39-1.22-1.16-1.22q-1.57,0-4.49,2.37Q768.57,900.24,765.11,908.19Z"/><path class="cls-2" d="M804.29,903.76c.53-.49,1-1,1.52-1.46q12.69-12.39,17-12.39,2.37,0,2.37,2.61,0,1.82-2.13,4.31-11.59,13.54-11.6,23.88a12.23,12.23,0,0,0,1.82,6.37,4.75,4.75,0,0,1,.85,2.19,1.91,1.91,0,0,1-.73,1.4,2.46,2.46,0,0,1-1.88.85q-2.49,0-4.19-3.16a14.8,14.8,0,0,1-1.64-7.23q0-8.21,6.19-18.16-8.25,5.28-15.36,18.71c-1.22,2.14-2.52,3.22-3.89,3.22a2.18,2.18,0,0,1-1.7-.73,3,3,0,0,1-.85-2.19q0-3.27,7.47-17.19,4-7.53,6.32-10.93c1.53-2.23,2.85-3.35,3.94-3.35a2.16,2.16,0,0,1,1.52.73,2.68,2.68,0,0,1,.85,2c0,.89-.58,2.16-1.76,3.82A64,64,0,0,0,804.29,903.76Z"/><path class="cls-2" d="M847.18,885.47a97.6,97.6,0,0,0-7.29,13.73q-4.8,10.81-4.8,16.16a3.59,3.59,0,0,0,.64,2.31,2.29,2.29,0,0,0,1.91.79q3,0,7.35-5.71a74.25,74.25,0,0,0,4.86-7c.77-1.34,1.6-2,2.49-2a1.84,1.84,0,0,1,1.34.54,1.68,1.68,0,0,1,.48,1.1q0,2.25-5.89,10-7,9.36-12.88,9.36a6.18,6.18,0,0,1-5.16-2.86A8.94,8.94,0,0,1,829,916.7q0-7.35,4.25-17.13,1-2.43,5.72-11.73a11.24,11.24,0,0,1-2.5.43,4.15,4.15,0,0,1-2.24-.61,2.5,2.5,0,0,1-1.34-2.13,2.74,2.74,0,0,1,1.76-2.43,29.73,29.73,0,0,1,4.5-.79,31.16,31.16,0,0,0,4.25-1.15,108,108,0,0,1,6.93-10.39Q853,867.13,854,866a4,4,0,0,1,2.55-1.52,2.24,2.24,0,0,1,1.58.85,2.36,2.36,0,0,1,.73,1.58c0,1.06-1.13,3.14-3.4,6.26a58.19,58.19,0,0,0-3.34,4.92,43,43,0,0,1,9.66-1.82c2.22,0,3.34.93,3.34,2.79a2.23,2.23,0,0,1-1.16,2.07,10,10,0,0,1-3.16.61c-.68,0-3.74.72-9.17,2.3C850.11,884.52,848.63,885,847.18,885.47Z"/><path class="cls-2" d="M873.05,914.57a44.77,44.77,0,0,1-3.95,5.95q-3.83,4.74-7.59,4.74a5.64,5.64,0,0,1-5.1-3.1,9.29,9.29,0,0,1-1.16-4.73q0-6.75,4.26-14.89a39.2,39.2,0,0,1,11.42-13.91,14.48,14.48,0,0,1,8.44-3.16,6,6,0,0,1,4.25,1.58,4.26,4.26,0,0,1,1.46,3.16,10.1,10.1,0,0,1-1,3.71,4,4,0,0,1,.91,2.24c0,.85-.57,2.25-1.7,4.2a45.8,45.8,0,0,0-3.52,7.89,26.27,26.27,0,0,0-1.89,8.39,6,6,0,0,0,1.52,4.19,11.48,11.48,0,0,0,2.49,1.4,2.59,2.59,0,0,1,1.52,2.55,2.35,2.35,0,0,1-.85,1.88,3.14,3.14,0,0,1-2.13.79,7.08,7.08,0,0,1-5.65-2.92,9.1,9.1,0,0,1-1.94-5.95C872.81,917.77,872.89,916.43,873.05,914.57Zm7.6-20a6.11,6.11,0,0,0-1.58-2,3,3,0,0,0-1.83-.64q-4.61,0-10,8.08-6,8.93-6,15.13a3.94,3.94,0,0,0,.57,2.31,2,2,0,0,0,1.74.79q2.91,0,6.8-6.2a103.38,103.38,0,0,0,5.41-10,52.82,52.82,0,0,1,3.09-5.71A9.06,9.06,0,0,1,880.65,894.58Z"/><path class="cls-2" d="M903.18,888.21a2.11,2.11,0,0,1,1.7.79,2.21,2.21,0,0,1,.49,1.33c0,.73-.59,1.95-1.76,3.65a110.62,110.62,0,0,0-9,16.1,133.6,133.6,0,0,0-5,13.36c-.64,2-1.66,3-3,3a2.33,2.33,0,0,1-1.95-1,2.6,2.6,0,0,1-.67-1.7q0-1.81,3.89-12.15a84.85,84.85,0,0,1,9.84-18,35.21,35.21,0,0,1,3.28-4.31A3.13,3.13,0,0,1,903.18,888.21Zm11.54-22.54c1.83,0,2.74.93,2.74,2.79,0,1.7-.89,3.59-2.67,5.65s-3.35,3-4.93,3a2.35,2.35,0,0,1-1.88-.85,2.81,2.81,0,0,1-.73-2c0-1.94,1.08-4,3.22-6.19Q912.84,865.67,914.72,865.67Z"/><path class="cls-2" d="M931.43,884.26a9.8,9.8,0,0,1,5.65,1.33,4.67,4.67,0,0,1,1.88,4.07,11,11,0,0,1-2.67,6.93,17.66,17.66,0,0,1-7.66,5.1,14,14,0,0,1-4.68,1c-1.7,0-2.55-.74-2.55-2.24a2.49,2.49,0,0,1,1.46-2.31,41.21,41.21,0,0,1,4.13-1,9.26,9.26,0,0,0,4.13-2.13,4,4,0,0,0,1.64-3,2.29,2.29,0,0,0-.73-1.88,3.3,3.3,0,0,0-2.18-.61q-3.52,0-7.78,2.86-4.92,3.21-4.92,7.65,0,3.16,3.22,7.9,3.58,5.16,3.58,8.75a9.46,9.46,0,0,1-4.73,8.38,12,12,0,0,1-6.62,1.88q-5.83,0-8.87-4.19a11.78,11.78,0,0,1-2.13-7.05,12.81,12.81,0,0,1,2.43-7.95c1.05-1.42,2.15-2.13,3.28-2.13s1.52.4,1.52,1.21a3.33,3.33,0,0,1-.55,1.46,12.85,12.85,0,0,0-1.4,6.14,6.76,6.76,0,0,0,2.13,5,6,6,0,0,0,4.31,1.82,4.58,4.58,0,0,0,3.71-1.58,5.18,5.18,0,0,0,1.09-3.4q0-2.55-2.91-6.62-4-5.6-4-10.15,0-6.06,6.62-10.75A23.42,23.42,0,0,1,931.43,884.26Z"/><path class="cls-2" d="M167.45,841.15H153v-59.9H139.94V767.47h41v13.78H167.45Z"/><path class="cls-2" d="M244.53,841h-14.1V810.72H206V841H191.52V767H206v30.32h24.44V767h14.1Z"/><path class="cls-2" d="M326.43,841H311.58l-5.51-15.16H275.8L269.6,841H255.13l28.57-74h14.15l.32,1.06L291,786.66l-10,25.44h20l-4.83-12,7.27-18.61Z"/><path class="cls-2" d="M371.43,841H337V767h13.73v60.59h20.67Z"/><path class="cls-2" d="M395.82,841H382V767h13.79Z"/><path class="cls-2" d="M433.93,841.15H419.51v-59.9H406.42V767.47h41v13.78H433.93Z"/><path class="cls-2" d="M518,841H503.16l-5.51-15.16H467.38L461.18,841H446.71l28.57-74h14.15l.32,1.06-7.21,18.61-10,25.44h20l-4.83-12,7.26-18.61Z"/><path class="cls-2" d="M631.71,841H616.87l-5.51-15.16H581.09L574.88,841H560.41L589,767h14.15l.32,1.06-7.21,18.61-10,25.44h20l-4.82-12,7.26-18.61Z"/><path class="cls-2" d="M676.72,841H642.31V767H656v60.59h20.68Z"/><path class="cls-2" d="M758.62,841.15H743.77L738.26,826H708l-6.2,15.16H687.32l28.57-74H730l.32,1q-4.23,11.15-8.5,22.08t-8.72,22h20l-4.82-12,7.26-18.6Zm-35.15-79.52h-9.65L725.54,742h16.54Z"/><path class="cls-2" d="M786.08,841H769.22V767h16.86q16,0,23.74,4.13,7.84,4,13.1,13.1,4.82,8.53,4.82,21A43,43,0,0,1,825,820.74a29.51,29.51,0,0,1-7.9,12,29.22,29.22,0,0,1-10.71,6.52Q800.55,841,786.08,841Zm3.81-13.78q9.81,0,14.1-2.07a16.61,16.61,0,0,0,6.89-7.58,26.43,26.43,0,0,0,2.76-12.72q0-24.12-25.5-24.12h-4.82v46.49Z"/><path class="cls-2" d="M852.13,841H838.34V767h13.79Z"/><path class="cls-2" d="M901.32,842.74q-16.55,0-27.57-11.34-11-11.77-11-27.2a37.88,37.88,0,0,1,5.19-19.61A37.22,37.22,0,0,1,882,770.49a38.06,38.06,0,0,1,19.35-5.2q15.48,0,26.82,11.35a37.87,37.87,0,0,1,11.4,27.56q0,16.49-11,27.51A37.24,37.24,0,0,1,901.32,842.74Zm0-13.41a22.87,22.87,0,0,0,16.86-7.21q7.2-7.05,7.21-17.92a25.06,25.06,0,0,0-7.21-17.92,24.16,24.16,0,0,0-34.41,0q-6.88,7.07-6.89,17.92,0,12.4,9,19.62A23.77,23.77,0,0,0,901.32,829.33Z"/></svg>